<?xml version="1.0" standalone="no"?>
<!DOCTYPE svg PUBLIC "-//W3C//DTD SVG 20010904//EN"
 "http://www.w3.org/TR/2001/REC-SVG-20010904/DTD/svg10.dtd">
<svg version="1.0" xmlns="http://www.w3.org/2000/svg"
 width="1500.000000pt" height="1500.000000pt" viewBox="0 0 1500.000000 1500.000000"
 preserveAspectRatio="xMidYMid meet">

<g transform="translate(0.000000,1500.000000) scale(0.100000,-0.100000)"
fill="#000000" stroke="none">
<path d="M2765 14993 c-878 -80 -1652 -514 -2180 -1224 -321 -431 -524 -964
-574 -1509 -8 -80 -11 -1547 -11 -4760 0 -4946 -2 -4750 45 -5008 211 -1155
1086 -2096 2220 -2386 163 -41 349 -73 490 -84 74 -5 -5 -8 -300 -12 -220 -3
561 -6 1735 -7 1198 -1 2126 2 2115 7 -17 7 -17 9 -2 9 16 1 17 129 17 2536
l0 2535 -950 0 -950 0 0 1085 0 1085 949 0 950 0 4 993 c4 844 7 1011 21 1122
76 601 248 1067 539 1454 90 120 273 309 392 406 481 391 1132 595 1896 595
385 0 960 -46 1464 -118 l190 -27 3 -927 2 -928 -556 0 c-451 0 -576 -3 -661
-16 -502 -74 -804 -347 -916 -829 -20 -87 -21 -121 -24 -907 l-4 -818 1036 0
c966 0 1035 -1 1035 -17 0 -19 -317 -2095 -325 -2130 l-5 -23 -870 0 -870 0 0
-2545 0 -2545 2133 2 c1172 2 1952 5 1732 8 -295 4 -374 7 -300 12 351 27 748
139 1086 309 500 250 949 665 1234 1139 210 349 340 714 407 1140 l23 145 0
4740 c0 4542 -1 4745 -18 4870 -97 686 -386 1272 -861 1749 -461 462 -1027
748 -1696 858 l-135 23 -4735 1 c-2604 0 -4753 -1 -4775 -3z"/>
</g>
</svg>
