<?xml version="1.0" standalone="no"?>
<!DOCTYPE svg PUBLIC "-//W3C//DTD SVG 20010904//EN"
 "http://www.w3.org/TR/2001/REC-SVG-20010904/DTD/svg10.dtd">
<svg version="1.0" xmlns="http://www.w3.org/2000/svg"
 width="1500.000000pt" height="1498.000000pt" viewBox="0 0 1500.000000 1498.000000"
 preserveAspectRatio="xMidYMid meet">

<g transform="translate(0.000000,1498.000000) scale(0.100000,-0.100000)"
fill="#000000" stroke="none">
<path d="M3074 14970 c-546 -32 -1078 -203 -1549 -499 -371 -233 -726 -580
-972 -951 -321 -483 -500 -1010 -543 -1595 -8 -106 -10 -1428 -8 -4545 4
-4850 -1 -4436 64 -4760 260 -1299 1282 -2316 2584 -2569 276 -54 -10 -51
4855 -51 4851 0 4581 -3 4860 50 851 161 1615 671 2099 1400 258 388 417 786
508 1270 l23 125 3 4585 c2 3354 0 4611 -8 4680 -46 388 -186 820 -379 1170
-74 134 -224 356 -327 485 -113 142 -349 377 -489 489 -492 392 -1031 618
-1675 703 -127 17 -381 18 -4525 19 -2414 1 -4449 -2 -4521 -6z m6937 -1901
c630 -50 1218 -279 1729 -675 148 -114 430 -396 544 -544 376 -486 588 -1005
668 -1640 19 -152 19 -5324 0 -5480 -94 -767 -403 -1411 -929 -1935 -533 -531
-1210 -849 -1972 -925 -68 -6 -936 -10 -2542 -10 -2122 0 -2459 2 -2587 15
-1189 124 -2214 904 -2652 2020 -89 227 -147 446 -192 720 l-23 140 -3 2640
c-2 2338 -1 2658 13 2794 113 1107 785 2075 1780 2561 377 184 779 293 1195
323 25 2 1123 4 2441 5 1622 1 2438 -1 2530 -9z"/>
<path d="M5070 12233 c-115 -11 -217 -26 -300 -44 -596 -122 -1136 -487 -1480
-999 -192 -285 -307 -574 -373 -935 l-22 -120 -3 -2605 c-3 -2840 -5 -2728 53
-2985 193 -857 867 -1555 1709 -1770 298 -76 55 -70 2861 -70 l2510 0 130 23
c1041 188 1818 1001 1957 2047 10 81 13 597 13 2705 0 2911 6 2675 -70 2975
-212 844 -893 1517 -1741 1719 -271 64 -53 59 -2754 61 -1350 1 -2471 0 -2490
-2z m5633 -1009 c171 -37 337 -150 430 -292 88 -133 122 -261 115 -425 -13
-285 -196 -526 -473 -624 -72 -25 -93 -28 -215 -28 -115 0 -145 3 -205 23
-229 77 -388 234 -462 457 -23 70 -27 97 -27 210 0 120 2 136 31 218 39 112
83 184 158 262 168 175 415 250 648 199z m-2912 -769 c789 -76 1429 -355 1904
-830 447 -447 707 -1018 787 -1730 16 -141 15 -550 -1 -680 -75 -614 -293
-1146 -657 -1605 -95 -121 -381 -401 -499 -491 -453 -345 -937 -541 -1491
-605 -191 -22 -583 -15 -771 14 -342 54 -699 174 -987 333 -765 423 -1307
1149 -1490 1999 -38 176 -56 326 -63 530 -20 627 155 1245 502 1765 484 726
1240 1197 2085 1299 156 19 492 19 681 1z"/>
<path d="M7276 9439 c-878 -78 -1602 -803 -1716 -1719 -13 -109 -13 -361 1
-470 94 -758 614 -1392 1335 -1629 558 -183 1172 -106 1654 207 125 81 194
135 304 242 508 491 717 1208 570 1950 -92 463 -330 830 -695 1075 -297 200
-668 313 -1124 344 -168 12 -189 12 -329 0z"/>
</g>
</svg>
