<svg xmlns="http://www.w3.org/2000/svg" viewBox="0 0 256 256"><path d="M26.22 254.77C13.35 252.59.53 241.12.53 226.61Q.48 128.99.51 31.32q0-5.01 1.18-8.48C5.78 10.87 16.09 1.7 29.19 1.29q10.01-.31 20-.41Q159.36-.28 228 1.15c10.81.22 21.61 10.37 25.37 20.29q1.36 3.59 1.53 9.32.5 17.58.53 28.3c.16 62.96.94 116.11-.55 166.35-.38 13.08-8.46 24.26-20.8 28.42q-4.44 1.5-14.31 1.54-86.8.35-173.59-.01-16.91-.08-19.96-.59ZM69.79 84.03C89.98 77.07 88.47 46.87 67 44.27c-25.76-3.13-32.61 31.26-8.29 40.02 2.77 1 8.39.66 11.08-.26ZM137.25 114q.45-7.76.12-13.42a.61.61 0 0 0-.61-.58H104.5a.5.5 0 0 0-.5.5v111.37a.63.62 90 0 0 .62.63h31.85a1.03 1.02-.3 0 0 1.03-1.03q-.07-29.21.27-55.97.05-4.19.33-8.41c.76-11.63 9.67-19.05 21.09-18.77 9 .23 18.03 7.78 18.1 17.44q.24 32.74.41 66.21a.55.55 0 0 0 .55.55l33.38-.02a.5.5 0 0 0 .5-.49q.46-39.2-.3-78.38c-.05-2.54-.81-4.9-1.41-7.34-3.92-15.83-15.41-27.34-31.8-28.81q-10.03-.89-13.4-.31-17.12 2.97-27.15 17.09a.49.48-58.1 0 1-.63.15q-.21-.11-.19-.41Zm-56.01-13.36a.64.64 0 0 0-.64-.64H47.14a.64.64 0 0 0-.64.64v111.24a.64.64 0 0 0 .64.64H80.6a.64.64 0 0 0 .64-.64V100.64Z"/></svg>