<?xml version="1.0" standalone="no"?>
<!DOCTYPE svg PUBLIC "-//W3C//DTD SVG 20010904//EN"
 "http://www.w3.org/TR/2001/REC-SVG-20010904/DTD/svg10.dtd">
<svg version="1.0" xmlns="http://www.w3.org/2000/svg"
 width="2000.000000pt" height="2000.000000pt" viewBox="0 0 2000.000000 2000.000000"
 preserveAspectRatio="xMidYMid meet">

<g transform="translate(0.000000,2000.000000) scale(0.100000,-0.100000)"
fill="#000000" stroke="none">
<path d="M2580 19989 c-564 -38 -1117 -258 -1557 -618 -143 -117 -348 -329
-455 -471 -308 -409 -499 -893 -548 -1390 -8 -84 -10 -2125 -8 -7590 3 -7119
4 -7480 21 -7580 10 -58 32 -163 49 -235 256 -1077 1120 -1888 2218 -2085
l115 -20 7635 3 7635 2 121 27 c559 126 1021 375 1404 758 407 406 672 916
771 1484 19 106 19 279 19 7717 l0 7608 -25 134 c-67 361 -210 719 -409 1016
-109 163 -188 262 -316 395 -484 504 -1117 798 -1820 846 -175 12 -14675 11
-14850 -1z m7915 -2589 c1307 -64 2394 -380 3315 -963 1110 -702 1950 -1807
2425 -3187 71 -206 166 -522 160 -528 -9 -10 -1230 -332 -1241 -328 -6 2 -19
35 -29 73 -30 113 -123 389 -182 543 -495 1288 -1312 2162 -2482 2654 -896
378 -2082 516 -3211 375 -2133 -266 -3491 -1495 -4050 -3664 -176 -681 -264
-1394 -277 -2230 -22 -1458 223 -2746 712 -3740 638 -1298 1685 -2092 3155
-2394 243 -50 499 -85 825 -113 225 -19 860 -16 1115 6 1178 99 1979 411 2712
1055 583 512 916 1095 1025 1791 22 146 25 576 5 715 -98 649 -375 1135 -867
1518 -92 72 -284 202 -288 196 -2 -2 -17 -92 -35 -199 -59 -361 -174 -765
-302 -1066 -308 -721 -824 -1262 -1480 -1552 -549 -242 -1251 -334 -1883 -246
-963 134 -1738 639 -2107 1372 -117 233 -184 447 -226 722 -26 163 -26 529 0
695 190 1245 1268 2066 2871 2185 521 39 1188 17 1698 -56 98 -14 180 -24 182
-22 7 7 -48 257 -82 368 -98 327 -228 561 -420 761 -126 131 -238 212 -408
295 -200 98 -393 152 -660 185 -150 19 -514 16 -660 -5 -538 -76 -953 -309
-1247 -701 -33 -44 -64 -81 -69 -83 -8 -3 -1018 685 -1048 714 -13 12 -9 23
31 81 143 209 389 473 588 633 383 306 848 520 1350 620 266 53 395 65 730 65
322 0 438 -9 690 -51 1148 -193 1951 -894 2322 -2029 107 -328 188 -762 214
-1148 l7 -97 61 -27 c877 -390 1568 -1012 1944 -1751 427 -838 518 -1888 246
-2830 -237 -821 -720 -1530 -1464 -2154 -1040 -872 -2338 -1288 -4025 -1288
-1587 0 -2919 397 -3973 1183 -846 633 -1510 1542 -1933 2649 -501 1310 -700
3002 -548 4673 156 1731 660 3137 1500 4191 752 943 1752 1581 2974 1899 723
189 1564 273 2340 235z"/>
<path d="M10235 9779 c-399 -29 -738 -112 -1011 -249 -345 -173 -558 -416
-646 -738 -31 -113 -31 -382 0 -496 82 -299 277 -529 578 -684 279 -143 521
-200 884 -209 231 -6 396 7 590 47 349 71 655 245 866 491 297 347 483 862
558 1546 9 78 16 149 16 156 0 19 -40 28 -270 66 -208 34 -397 56 -610 71
-171 12 -783 11 -955 -1z"/>
</g>
</svg>
